<?xml version="1.0" encoding="UTF-8"?>
<svg id="Ebene_1" data-name="Ebene 1" xmlns="http://www.w3.org/2000/svg" viewBox="0 0 49.94 43.96">
  <defs>
    <style>
      .cls-1 {
        fill: #fff;
      }

      .cls-2 {
        fill: #97a4b0;
      }

      .cls-3 {
        fill: #74b876;
      }
    </style>
  </defs>
  <path class="cls-2" d="M43.32,9.82h0S38.39,1.27,38.39,1.27c-.03-.05-.06-.09-.09-.13-.11-.18-.25-.33-.4-.47-.06-.05-.12-.1-.18-.15-.43-.32-.96-.5-1.52-.5h-10.12c-.81,.07-1.54,.53-1.95,1.25l-2.73,4.72h11.34c.91,0,1.75,.49,2.2,1.28l5.66,9.79,2.72-4.71c.45-.78,.45-1.74,0-2.53Zm-17,12.34c-.9,0-1.74-.48-2.2-1.27l-4.93-8.54c-.14-.25-.24-.51-.29-.78-.7,.42-1.29,1.01-1.7,1.73l-3.63,6.29c-.86,1.48-.86,3.31,0,4.79l3.63,6.29c.85,1.48,2.43,2.39,4.15,2.39h7.26c1.71,0,3.29-.91,4.15-2.39l3.63-6.29c.42-.73,.63-1.54,.64-2.36-.26,.09-.55,.14-.84,.14h-9.87Z"/>
  <path class="cls-1" d="M49.61,23.25l-11.22,19.43c-.45,.79-1.29,1.28-2.19,1.28H13.76c-.91,0-1.74-.49-2.2-1.28L.34,23.25c-.45-.78-.45-1.75,0-2.53L11.56,1.28C12.02,.5,12.85,.02,13.76,.02h5.46l-4.05,7c-.05,.08-.11,.16-.16,.25l-7.77,13.45c-.45,.78-.45,1.75,0,2.53l7.77,13.46c.45,.78,1.29,1.27,2.2,1.27h15.53c.91-.01,1.75-.49,2.2-1.27l4.64-8.04c.06-.08,.12-.17,.17-.25l7.16-12.4,2.7,4.7c.45,.78,.45,1.75,0,2.53Z"/>
  <path class="cls-3" d="M37.03,22.02c-.01,.82-.22,1.63-.64,2.36l-3.63,6.29c-.86,1.48-2.44,2.39-4.15,2.39h-7.26c-1.72,0-3.3-.91-4.15-2.39l-3.63-6.29c-.86-1.48-.86-3.31,0-4.79l3.63-6.29c.41-.72,1-1.31,1.7-1.73,.72-.43,1.56-.67,2.44-.67h7.27c1.71,0,3.29,.92,4.15,2.4l3.63,6.29c.43,.75,.64,1.59,.64,2.43Z"/>
  <path class="cls-3" d="M43.32,12.35l-2.72,4.71-5.66-9.79c-.45-.79-1.29-1.28-2.2-1.28h-11.34l2.73-4.72c.41-.72,1.14-1.18,1.95-1.25,.08,0,.17-.02,.24-.02h9.87c.13,0,.25,.01,.37,.03,.17,.02,.33,.06,.49,.12,.1,.03,.19,.07,.28,.12,.02,.01,.04,.02,.05,.03,.12,.06,.24,.14,.34,.22,.06,.05,.12,.1,.18,.15,.15,.14,.29,.29,.4,.47,.03,.04,.06,.08,.09,.13l4.93,8.54h0c.45,.8,.45,1.76,0,2.54Z"/>
</svg>