<?xml version="1.0" encoding="utf-8"?>
<!-- Generator: Adobe Illustrator 27.0.1, SVG Export Plug-In . SVG Version: 6.00 Build 0)  -->
<svg version="1.1" id="Layer_1" xmlns="http://www.w3.org/2000/svg" xmlns:xlink="http://www.w3.org/1999/xlink" x="0px" y="0px"
	 viewBox="0 0 640 480" style="enable-background:new 0 0 640 480;" xml:space="preserve">
<style type="text/css">
	.st0{fill:#101421;}
	.st1{fill:#74B876;}
</style>
<g>
	<path class="st0" d="M68.28,254.83l113.38,196.39c5.17,8.96,14.73,14.48,25.08,14.48l226.77,0c10.35,0,19.91-5.52,25.08-14.48
		l113.39-196.39c5.17-8.96,5.17-20,0-28.96L458.6,29.48C453.43,20.52,443.87,15,433.52,15l-166.08,0.01L206.75,15
		c-10.35,0-19.91,5.52-25.08,14.48L68.28,225.87C63.11,234.83,63.11,245.87,68.28,254.83z M228.91,81.72l166.1,0.01
		c10.35,0,19.9,5.52,25.08,14.48l83.23,144.15l-0.2,0.33l-83.02,143.83c-5.17,8.96-14.73,14.48-25.08,14.48l-149.76,0
		c-10.35,0-19.91-5.52-25.08-14.48l-74.87-129.67c-5.17-8.96-5.17-20,0-28.96l83.24-144.18L228.91,81.72z"/>
	<path class="st1" d="M267.44,15.01L436,15c8.81,0,16.96,4.7,21.37,12.33l84.66,146.63l-38.52,66.73l-0.4-0.01l0.2-0.33
		L420.38,96.72c-5.36-9.28-15.25-14.99-25.96-14.99l-165.51-0.01L267.44,15.01z"/>
	<path class="st1" d="M209.13,251.96l45.45,78.72c4.14,7.18,11.81,11.6,20.1,11.6h90.9c8.29,0,15.95-4.42,20.1-11.6l45.45-78.72
		c4.15-7.18,4.15-16.02,0-23.2l-45.45-78.72c-4.14-7.18-11.81-11.6-20.1-11.6h-90.9c-8.29,0-15.95,4.42-20.1,11.6l-45.45,78.72
		C204.99,235.93,204.99,244.78,209.13,251.96z"/>
</g>
</svg>
